<svg width="32" height="32" viewBox="0 0 32 32" fill="none" xmlns="http://www.w3.org/2000/svg">
  <!-- Background circle -->
  <circle cx="16" cy="16" r="16" fill="#0b0f14"/>
  
  <!-- Book/graduation cap -->
  <path d="M8 12L16 8L24 12V20C24 22.2091 20.4183 24 16 24C11.5817 24 8 22.2091 8 20V12Z" fill="#0af395"/>
  
  <!-- Book pages -->
  <path d="M10 13.5L16 10.5L22 13.5V18.5C22 19.8807 19.3137 21 16 21C12.6863 21 10 19.8807 10 18.5V13.5Z" fill="#0b0f14"/>
  
  <!-- Graduation cap tassel -->
  <path d="M16 8L16 6" stroke="#0af395" stroke-width="1.5" stroke-linecap="round"/>
  <circle cx="16" cy="6" r="1" fill="#0af395"/>
  
  <!-- Small dots representing knowledge/learning -->
  <circle cx="12" cy="16" r="1" fill="#0af395"/>
  <circle cx="20" cy="16" r="1" fill="#0af395"/>
  <circle cx="16" cy="18" r="1" fill="#0af395"/>
</svg> 